<svg xmlns="http://www.w3.org/2000/svg" xmlns:xlink="http://www.w3.org/1999/xlink" version="1.0" x="0" y="0" width="2400" height="419.4272201984088" viewBox="40.48825637817383 102.36635391235352 259.02348724365237 45.267292175292965" preserveAspectRatio="xMidYMid meet" color-interpolation-filters="sRGB"><g><defs><linearGradient id="92" x1="0%" y1="0%" x2="100%" y2="0%"><stop offset="0%" stop-color="#fa71cd"></stop> <stop offset="100%" stop-color="#9b59b6"></stop></linearGradient><linearGradient id="93" x1="0%" y1="0%" x2="100%" y2="0%"><stop offset="0%" stop-color="#f9d423"></stop> <stop offset="100%" stop-color="#f83600"></stop></linearGradient><linearGradient id="94" x1="0%" y1="0%" x2="100%" y2="0%"><stop offset="0%" stop-color="#0064d2"></stop> <stop offset="100%" stop-color="#1cb0f6"></stop></linearGradient><linearGradient id="95" x1="0%" y1="0%" x2="100%" y2="0%"><stop offset="0%" stop-color="#f00978"></stop> <stop offset="100%" stop-color="#3f51b1"></stop></linearGradient><linearGradient id="96" x1="0%" y1="0%" x2="100%" y2="0%"><stop offset="0%" stop-color="#7873f5"></stop> <stop offset="100%" stop-color="#ec77ab"></stop></linearGradient><linearGradient id="97" x1="0%" y1="0%" x2="100%" y2="0%"><stop offset="0%" stop-color="#f9d423"></stop> <stop offset="100%" stop-color="#e14fad"></stop></linearGradient><linearGradient id="98" x1="0%" y1="0%" x2="100%" y2="0%"><stop offset="0%" stop-color="#009efd"></stop> <stop offset="100%" stop-color="#2af598"></stop></linearGradient><linearGradient id="99" x1="0%" y1="0%" x2="100%" y2="0%"><stop offset="0%" stop-color="#ffcc00"></stop> <stop offset="100%" stop-color="#00b140"></stop></linearGradient><linearGradient id="100" x1="0%" y1="0%" x2="100%" y2="0%"><stop offset="0%" stop-color="#d51007"></stop> <stop offset="100%" stop-color="#ff8177"></stop></linearGradient><linearGradient id="102" x1="0%" y1="0%" x2="100%" y2="0%"><stop offset="0%" stop-color="#a2b6df"></stop> <stop offset="100%" stop-color="#0c3483"></stop></linearGradient><linearGradient id="103" x1="0%" y1="0%" x2="100%" y2="0%"><stop offset="0%" stop-color="#7ac5d8"></stop> <stop offset="100%" stop-color="#eea2a2"></stop></linearGradient><linearGradient id="104" x1="0%" y1="0%" x2="100%" y2="0%"><stop offset="0%" stop-color="#00ecbc"></stop> <stop offset="100%" stop-color="#007adf"></stop></linearGradient><linearGradient id="105" x1="0%" y1="0%" x2="100%" y2="0%"><stop offset="0%" stop-color="#b88746"></stop> <stop offset="100%" stop-color="#fdf5a6"></stop></linearGradient></defs><g fill="#333333" class="icon-text-wrapper icon-svg-group iconsvg" transform="translate(43.02770240545273,104.90579986572266)"><g class="iconsvg-imagesvg" transform="translate(229.94460201263428,1.8908042907714844)"><g><rect fill="#333333" fill-opacity="0" stroke-width="2" x="0" y="0" width="23.99999999999997" height="37.109193802764594" class="image-rect"></rect> <svg x="0" y="0" width="23.99999999999997" height="37.109193802764594" filtersec="colorsb3624358086" class="image-svg-svg primary" style="overflow: visible;"><svg xmlns="http://www.w3.org/2000/svg" viewBox="-0.00368826393969357 0.00042724609375 64.6736831665039 99.99935150146484"><g d-rs="3" transform="matrix(1,0,0,-1,0,100.0001)"><path d="M62.77 99.66L44.36 80.57a.83.83 0 0 1-.25-.58V20a.83.83 0 0 1 .25-.58L62.77.34c.64-.67 1.9-.28 1.9.57v98.18c0 .85-1.26 1.24-1.9.57z" fill="#FFA400"></path><path d="M38.91 98.89L25.65 80.54a.85.85 0 0 1-.15-.48V19.94a.85.85 0 0 1 .15-.48L38.91 1.11c.56-.78 2-.44 2 .48v96.82c-.02.92-1.44 1.26-2 .48z" fill="#333333"></path><path d="M19.19 97.34L11.1 80.48a.81.81 0 0 1-.08-.34V19.86a.81.81 0 0 1 .08-.34l8.09-16.86c.44-.92 2.06-.65 2.06.35V97c0 1-1.62 1.26-2.06.34z" fill="#FFA400"></path><path d="M3 97.17l-3-12.3a1.1 1.1 0 0 1 0-.18V15.31a1.1 1.1 0 0 1 0-.18l3-12.3c.2-1.08 2.07-.92 2.07.17v94c0 1.09-1.87 1.25-2.07.17z" fill="#333333"></path></g></svg></svg> </g></g> <g transform="translate(0,0)"><g fill-rule="" class="tp-name iconsvg-namesvg"><g transform="scale(1.2400000000000002)"><g><path d="M24.76-7.91L28.54-4.18Q26.32-1.96 23.38-0.69 20.45 0.58 17.07 0.58L17.07 0.58Q13.74 0.58 10.78-0.69 7.82-1.96 5.62-4.16 3.42-6.36 2.16-9.31 0.89-12.27 0.89-15.6L0.89-15.6Q0.89-18.94 2.16-21.89 3.42-24.85 5.62-27.05 7.82-29.25 10.78-30.52 13.74-31.79 17.07-31.79L17.07-31.79Q20.45-31.79 23.38-30.52 26.32-29.25 28.54-27.03L28.54-27.03 24.76-23.25Q23.21-24.81 21.25-25.63 19.29-26.45 17.07-26.45L17.07-26.45Q14.89-26.45 12.94-25.63 10.98-24.81 9.42-23.25L9.42-23.25Q7.87-21.69 7.05-19.74 6.22-17.78 6.22-15.6L6.22-15.6Q6.22-13.43 7.05-11.45 7.87-9.47 9.42-7.91L9.42-7.91Q10.98-6.36 12.94-5.56 14.89-4.76 17.07-4.76L17.07-4.76Q19.29-4.76 21.25-5.56 23.21-6.36 24.76-7.91L24.76-7.91ZM40.94-17.52L40.94-17.52Q38.28-17.52 36.41-15.65L36.41-15.65Q34.54-13.78 34.54-11.11L34.54-11.11Q34.54-8.49 36.41-6.62L36.41-6.62Q37.3-5.69 38.48-5.22 39.65-4.76 40.94-4.76L40.94-4.76Q42.23-4.76 43.39-5.22 44.54-5.69 45.48-6.62L45.48-6.62Q47.35-8.49 47.35-11.11L47.35-11.11Q47.35-13.78 45.48-15.65L45.48-15.65Q43.52-17.52 40.94-17.52ZM40.94-22.85L40.94-22.85Q43.39-22.85 45.52-21.94 47.66-21.03 49.26-19.43 50.86-17.83 51.77-15.69 52.68-13.56 52.68-11.11L52.68-11.11Q52.68-8.71 51.77-6.58 50.86-4.45 49.26-2.85 47.66-1.24 45.52-0.33 43.39 0.58 40.94 0.58L40.94 0.58Q38.5 0.58 36.36-0.33 34.23-1.24 32.63-2.85 31.03-4.45 30.12-6.58 29.21-8.71 29.21-11.11L29.21-11.11Q29.21-13.56 30.12-15.69 31.03-17.83 32.63-19.43 34.23-21.03 36.36-21.94 38.5-22.85 40.94-22.85ZM67.31-22.81L67.31-22.81Q69.75-22.81 71.82-21.89 73.88-20.98 75.4-19.38 76.91-17.78 77.75-15.65 78.6-13.51 78.6-11.07L78.6-11.07Q78.6-8.67 77.75-6.53 76.91-4.4 75.4-2.8 73.88-1.2 71.82-0.29 69.75 0.62 67.31 0.62L67.31 0.62Q64.68 0.62 62.55-0.4L62.55-0.4 64.46-5.16Q65.53-4.71 66.86-4.71L66.86-4.71Q69.57-4.71 71.4-6.58L71.4-6.58Q73.26-8.45 73.26-11.07L73.26-11.07Q73.26-13.74 71.4-15.6L71.4-15.6Q69.53-17.47 66.86-17.47L66.86-17.47Q64.28-17.47 62.33-15.6L62.33-15.6Q60.46-13.74 60.46-11.07L60.46-11.07 60.46-1.73 60.46 0.04 55.12 0.04 55.12-31.12 60.46-31.12 60.46-20.45Q61.75-21.47 63.44-22.14 65.13-22.81 67.31-22.81ZM98.51-22.27L103.85-22.27 103.85 0 98.51 0 98.51-11.11Q98.51-13.78 96.65-15.65L96.65-15.65Q94.78-17.52 92.11-17.52L92.11-17.52Q90.82-17.52 89.64-17.03 88.47-16.54 87.58-15.65L87.58-15.65Q85.71-13.78 85.71-11.11L85.71-11.11Q85.71-8.49 87.58-6.62L87.58-6.62Q88.47-5.69 89.64-5.22 90.82-4.76 92.11-4.76L92.11-4.76Q93.45-4.76 94.51-5.2L94.51-5.2 96.42-0.44Q94.38 0.58 91.67 0.58L91.67 0.58Q89.22 0.58 87.15-0.33 85.09-1.24 83.58-2.85 82.06-4.45 81.22-6.58 80.38-8.71 80.38-11.11L80.38-11.11Q80.38-13.56 81.22-15.69 82.06-17.83 83.58-19.43 85.09-21.03 87.15-21.94 89.22-22.85 91.67-22.85L91.67-22.85Q93.85-22.85 95.53-22.18 97.22-21.52 98.51-20.49L98.51-20.49 98.51-22.27ZM112.29 0L112.29 0 106.96 0 106.96-31.12 112.29-31.12 112.29 0ZM125.81-5.33L127.14 0 122.25 0Q120.74 0 119.41-0.58 118.07-1.16 117.1-2.16 116.12-3.16 115.54-4.49 114.96-5.82 114.96-7.34L114.96-7.34 114.96-26.72 120.3-28.05 120.3-19.56 123.41-19.56 124.74-14.23 120.3-14.23 120.3-7.34Q120.3-6.49 120.87-5.91 121.45-5.33 122.25-5.33L122.25-5.33 125.81-5.33ZM156.62-31.12L156.62-31.12 170.66 0 164.8 0 162.4-5.33 162.4-5.33 160-10.67 160-10.67 153.68-24.63 147.37-10.67 155.46-10.67 157.86-5.33 144.97-5.33 142.57 0 136.7 0 150.75-31.12 156.62-31.12ZM178.22-31.07L178.22-31.07 178.22 0 172.89 0 172.89-31.07 178.22-31.07Z" transform="translate(-0.89000004529953, 31.790000915527344)"></path></g> </g></g> </g></g><defs v-gra="od"></defs></g></svg>