<?xml version="1.0" encoding="UTF-8"?><svg id="Layer_1" xmlns="http://www.w3.org/2000/svg" xmlns:xlink="http://www.w3.org/1999/xlink" viewBox="0 0 580.56 203.18"><defs><style>.cls-1{fill:url(#linear-gradient);}.cls-1,.cls-2,.cls-3,.cls-4,.cls-5,.cls-6,.cls-7,.cls-8,.cls-9{stroke-width:0px;}.cls-2{fill:url(#linear-gradient-4);}.cls-3{fill:url(#linear-gradient-2);}.cls-4{fill:url(#linear-gradient-3);}.cls-5{fill:url(#linear-gradient-8);}.cls-6{fill:url(#linear-gradient-7);}.cls-7{fill:url(#linear-gradient-5);}.cls-8{fill:url(#linear-gradient-6);}.cls-9{fill:#0491b7;}</style><linearGradient id="linear-gradient" x1="90.75" y1="100.95" x2="122.2" y2="100.95" gradientUnits="userSpaceOnUse"><stop offset="0" stop-color="#5b45a0"/><stop offset="1" stop-color="#0491b7"/></linearGradient><linearGradient id="linear-gradient-2" x1="90.75" y1="100.95" x2="122.19" y2="100.95" xlink:href="#linear-gradient"/><linearGradient id="linear-gradient-3" x1="78.08" y1="100.89" x2="109.52" y2="100.89" xlink:href="#linear-gradient"/><linearGradient id="linear-gradient-4" x1="78.08" y1="100.89" x2="109.52" y2="100.89" xlink:href="#linear-gradient"/><linearGradient id="linear-gradient-5" x1="47.53" y1="89.03" x2="122.72" y2="89.03" xlink:href="#linear-gradient"/><linearGradient id="linear-gradient-6" x1="47.52" y1="89.03" x2="122.72" y2="89.03" xlink:href="#linear-gradient"/><linearGradient id="linear-gradient-7" x1="77.55" y1="112.78" x2="152.74" y2="112.78" xlink:href="#linear-gradient"/><linearGradient id="linear-gradient-8" x1="77.55" y1="112.78" x2="152.75" y2="112.78" xlink:href="#linear-gradient"/></defs><path class="cls-9" d="m172.15,124.75v-47.69h16.08c4.13,0,7.65.68,10.56,2.03,2.91,1.35,5.26,3.17,7.07,5.45,1.81,2.28,3.12,4.84,3.95,7.66.83,2.83,1.24,5.73,1.24,8.7,0,2.73-.39,5.48-1.18,8.28-.78,2.79-2.06,5.37-3.83,7.72s-4.14,4.25-7.1,5.69c-2.96,1.44-6.63,2.16-10.99,2.16h-15.81Zm8.82-8.38h7.9c2.43,0,4.47-.46,6.13-1.38,1.66-.92,2.99-2.13,4-3.64,1.01-1.51,1.75-3.18,2.22-5.01.46-1.83.7-3.64.7-5.43,0-1.91-.24-3.78-.72-5.62-.48-1.84-1.21-3.51-2.22-5.01-1-1.5-2.27-2.69-3.81-3.58-1.54-.89-3.4-1.33-5.55-1.33h-8.65v31Z"/><path class="cls-9" d="m221.98,124.75v-47.69h32.22v8.38h-23.4v10.49h13.86v8.38h-13.86v11.99h24.83v8.45h-33.66Z"/><path class="cls-9" d="m263.2,124.75l18.16-47.69h8.38l18.22,47.69h-9.5l-3.78-10.08h-18.22l-3.71,10.08h-9.54Zm16.11-18.16h12.43l-4.77-12.77c-.16-.39-.33-.82-.51-1.29s-.35-.96-.51-1.45c-.16-.49-.3-.91-.41-1.28-.11.36-.25.79-.41,1.28-.16.49-.33.97-.51,1.45-.18.48-.35.91-.51,1.29l-4.8,12.77Z"/><path class="cls-9" d="m316.68,124.75v-47.69h8.82v39.14h23.06v8.55h-31.89Z"/><path class="cls-9" d="m356.95,124.75v-47.69h20.13c4.02,0,7.21.73,9.57,2.2,2.36,1.47,4.05,3.34,5.08,5.62,1.02,2.28,1.53,4.66,1.53,7.14,0,1.73-.3,3.47-.9,5.23-.6,1.76-1.54,3.37-2.83,4.84-1.28,1.47-2.95,2.65-5.01,3.54-2.06.9-4.54,1.35-7.44,1.35h-11.31v17.78h-8.82Zm8.82-26.09h11.72c1.63,0,2.95-.33,3.93-1,.99-.67,1.7-1.52,2.13-2.54.43-1.02.65-2.06.65-3.1,0-.95-.2-1.95-.6-2.98-.4-1.03-1.09-1.9-2.06-2.61-.98-.7-2.33-1.06-4.05-1.06h-11.72v13.29Z"/><path class="cls-9" d="m402.29,124.75v-47.69h21.7c3.97,0,7.11.69,9.42,2.06,2.3,1.37,3.95,3.18,4.94,5.43s1.48,4.67,1.48,7.26c0,1.79-.35,3.61-1.04,5.45s-1.74,3.5-3.15,4.97c-1.41,1.48-3.18,2.57-5.31,3.27l9.4,19.25h-9.91l-9.03-18.05h-9.68v18.05h-8.82Zm8.82-26.37h13.01c1.66,0,2.97-.31,3.93-.94.96-.62,1.65-1.44,2.06-2.44.41-1,.61-2.06.61-3.17,0-1-.19-2-.58-3-.39-1-1.06-1.83-2.01-2.49-.95-.66-2.29-.99-4.02-.99h-13.01v13.01Z"/><path class="cls-9" d="m450.96,124.75v-47.69h32.23v8.38h-23.4v10.49h13.86v8.38h-13.86v11.99h24.83v8.45h-33.66Z"/><path class="cls-9" d="m494.94,124.75v-47.69h20.13c4.02,0,7.21.73,9.57,2.2,2.36,1.47,4.05,3.34,5.08,5.62,1.02,2.28,1.53,4.66,1.53,7.14,0,1.73-.3,3.47-.9,5.23-.6,1.76-1.54,3.37-2.83,4.84-1.28,1.47-2.95,2.65-5.01,3.54-2.05.9-4.54,1.35-7.44,1.35h-11.31v17.78h-8.82Zm8.82-26.09h11.72c1.63,0,2.95-.33,3.93-1,.99-.67,1.7-1.52,2.13-2.54.43-1.02.65-2.06.65-3.1,0-.95-.2-1.95-.6-2.98-.4-1.03-1.09-1.9-2.06-2.61-.98-.7-2.33-1.06-4.05-1.06h-11.72v13.29Z"/><path class="cls-1" d="m109.52,130.13v-41.54c0-2.72-2.21-4.93-4.94-4.93h-13.83v-11.88s26.5,0,26.5,0c2.72,0,4.94,2.21,4.94,4.94v53.42h-12.68Z"/><path class="cls-3" d="m117.26,71.78h-26.51v11.88h13.83c2.73,0,4.94,2.21,4.94,4.94v41.54h12.67v-53.42c0-2.73-2.21-4.94-4.94-4.94Z"/><path class="cls-4" d="m83.01,130.04c-2.72,0-4.94-2.21-4.94-4.94v-53.37h12.68s0,41.49,0,41.49c0,2.72,2.21,4.94,4.94,4.94h13.83v11.88s-26.5,0-26.5,0Z"/><path class="cls-2" d="m95.69,118.16c-2.73,0-4.94-2.21-4.94-4.94v-41.49h-12.67v53.37c0,2.73,2.21,4.94,4.94,4.94h26.5v-11.88h-13.83Z"/><path class="cls-7" d="m55.29,119.66c-10.34-10.34-10.34-27.16,0-37.5l26.1-26.1c5.01-5.01,11.67-7.77,18.75-7.77s13.74,2.76,18.75,7.77l3.84,3.84h-27.03c-2.72,0-4.94,2.22-4.94,4.94v6.94h-7.74c-2.72,0-4.94,2.21-4.94,4.94v6.94h-7.74c-2.72,0-4.93,2.21-4.93,4.94v41.18l-10.12-10.12Z"/><path class="cls-8" d="m70.34,83.66h7.74v-6.94c0-2.73,2.21-4.94,4.94-4.94h7.74v-6.94c0-2.73,2.21-4.94,4.94-4.94h27.03l-3.84-3.84c-10.36-10.36-27.15-10.36-37.5,0l-26.1,26.1c-10.36,10.36-10.36,27.15,0,37.5l10.11,10.11v-41.18c0-2.73,2.21-4.94,4.94-4.94Z"/><path class="cls-6" d="m100.14,153.52c-7.08,0-13.74-2.76-18.75-7.77l-3.84-3.83h27.03c2.72,0,4.94-2.22,4.94-4.94v-6.94h7.74c2.72,0,4.94-2.21,4.94-4.94v-6.94h7.74c2.72,0,4.94-2.21,4.94-4.94v-41.18l10.12,10.11c10.34,10.34,10.34,27.16,0,37.5l-26.1,26.1c-5.01,5.01-11.67,7.77-18.75,7.77Z"/><path class="cls-5" d="m144.98,82.16l-10.12-10.11v41.18c0,2.73-2.21,4.94-4.94,4.94h-7.74v6.94c0,2.73-2.21,4.94-4.94,4.94h-7.74v6.94c0,2.73-2.21,4.94-4.94,4.94h-27.03l3.84,3.84c10.36,10.36,27.15,10.36,37.5,0l26.1-26.1c10.36-10.36,10.36-27.15,0-37.5Z"/></svg>